{"glyphs":{"0":{"ha":556,"x_min":0,"x_max":0,"o":"m 106 50 b 46 231 66 93 46 153 l 46 742 b 106 922 46 819 66 880 b 278 986 145 965 203 986 b 450 922 353 986 410 965 b 510 742 490 880 510 819 l 510 231 b 450 50 510 153 490 93 b 278 -14 410 7 353 -14 b 106 50 203 -14 145 7 m 357 751 b 278 847 357 815 331 847 b 199 751 225 847 199 815 l 199 221 b 278 125 199 157 225 125 b 357 221 331 125 357 157 "},"1":{"ha":556,"x_min":0,"x_max":0,"o":"m 111 742 l 111 850 b 216 861 155 850 190 854 b 279 898 242 869 263 881 b 321 972 295 915 309 940 l 424 972 l 424 0 l 271 0 l 271 742 "},"2":{"ha":556,"x_min":0,"x_max":0,"o":"m 54 106 b 88 284 54 175 65 234 b 207 449 110 334 150 388 b 324 603 263 509 303 560 b 357 736 346 645 357 690 b 337 823 357 778 350 807 b 278 847 323 839 304 847 b 199 751 225 847 199 815 l 199 647 l 54 647 l 54 742 b 113 923 54 820 74 881 b 282 986 151 965 208 986 b 451 923 356 986 413 965 b 510 742 490 881 510 820 b 467 568 510 682 496 625 b 321 374 439 512 390 447 b 229 256 275 325 245 286 b 206 160 213 226 206 194 l 206 139 l 496 139 l 496 0 l 54 0 l 54 106 "},"3":{"ha":556,"x_min":0,"x_max":0,"o":"m 103 49 b 46 228 65 90 46 150 l 46 307 l 190 307 l 190 221 b 269 125 190 157 217 125 b 328 149 295 125 315 133 b 349 235 342 166 349 194 l 349 314 b 325 409 349 358 341 390 b 249 438 309 428 284 438 l 197 438 l 197 576 l 253 576 b 322 600 283 576 306 584 b 344 679 337 616 344 642 l 344 750 b 324 824 344 783 338 808 b 268 847 310 839 291 847 b 194 757 219 847 194 817 l 194 693 l 50 693 l 50 744 b 108 924 50 822 69 882 b 274 986 146 965 201 986 b 440 924 347 986 402 966 b 497 746 478 883 497 824 l 497 711 b 471 584 497 658 488 616 b 389 515 453 552 426 529 l 389 513 b 475 440 429 498 457 474 b 501 313 493 407 501 364 l 501 226 b 444 48 501 149 482 89 b 274 -14 405 7 349 -14 b 103 49 199 -14 142 7 "},"4":{"ha":556,"x_min":0,"x_max":0,"o":"m 21 176 l 21 315 l 299 972 l 465 972 l 465 315 l 538 315 l 538 176 l 465 176 l 465 0 l 313 0 l 313 176 m 313 694 l 310 694 l 160 315 l 313 315 "},"5":{"ha":556,"x_min":0,"x_max":0,"o":"m 111 49 b 53 231 72 91 53 152 l 53 307 l 197 307 l 197 219 b 276 125 197 156 224 125 b 356 219 329 125 356 156 l 356 438 b 276 533 356 501 329 533 b 197 438 224 533 197 501 l 197 429 l 53 429 l 81 972 l 483 972 l 483 833 l 217 833 l 204 601 l 207 601 b 339 672 236 649 280 672 b 465 615 394 672 437 653 b 508 450 494 577 508 522 l 508 231 b 450 49 508 152 489 91 b 281 -14 411 7 355 -14 b 111 49 206 -14 150 7 "},"6":{"ha":556,"x_min":0,"x_max":0,"o":"m 110 50 b 50 231 70 93 50 153 l 50 733 b 283 986 50 902 128 986 b 453 923 357 986 414 965 b 511 742 492 881 511 820 l 511 724 l 367 724 l 367 751 b 288 847 367 815 340 847 b 224 821 259 847 238 838 b 203 728 210 803 203 772 l 203 542 l 206 542 b 344 626 232 598 279 626 b 471 569 400 626 442 607 b 514 404 500 531 514 476 l 514 231 b 454 50 514 153 494 93 b 282 -14 414 7 357 -14 b 110 50 207 -14 150 7 m 361 392 b 282 488 361 456 335 488 b 203 392 229 488 203 456 l 203 219 b 282 125 203 156 229 125 b 361 219 335 125 361 156 "},"7":{"ha":556,"x_min":0,"x_max":0,"o":"m 47 833 l 47 972 l 506 972 l 506 839 l 267 0 l 111 0 l 356 833 "},"8":{"ha":556,"x_min":0,"x_max":0,"o":"m 101 48 b 39 226 59 89 39 149 l 39 313 b 63 434 39 361 47 401 b 139 511 78 467 104 493 l 139 514 b 67 587 106 531 83 556 b 44 706 52 618 44 657 l 44 746 b 105 924 44 824 65 883 b 278 986 145 966 203 986 b 451 924 353 986 410 966 b 511 746 491 883 511 824 l 511 706 b 417 514 511 613 480 549 l 417 511 b 493 434 452 493 477 467 b 517 313 509 401 517 361 l 517 226 b 455 48 517 149 496 89 b 278 -14 414 7 355 -14 b 101 48 201 -14 142 7 m 358 750 b 278 847 358 815 331 847 b 197 750 224 847 197 815 l 197 674 b 278 576 197 609 224 576 b 358 674 331 576 358 609 m 364 328 b 278 438 364 401 335 438 b 192 328 220 438 192 401 l 192 235 b 278 125 192 162 220 125 b 364 235 335 125 364 162 "},"9":{"ha":556,"x_min":0,"x_max":0,"o":"m 103 49 b 44 231 64 91 44 152 l 44 249 l 189 249 l 189 221 b 268 125 189 157 215 125 b 332 151 297 125 318 134 b 353 244 346 169 353 200 l 353 431 l 350 431 b 211 346 323 374 277 346 b 85 403 156 346 113 365 b 42 568 56 441 42 496 l 42 742 b 101 922 42 819 62 880 b 274 986 141 965 199 986 b 446 922 349 986 406 965 b 506 742 486 880 506 819 l 506 239 b 272 -14 506 70 428 -14 b 103 49 198 -14 142 7 m 353 753 b 274 847 353 816 326 847 b 194 753 221 847 194 816 l 194 581 b 274 485 194 517 221 485 b 353 581 326 485 353 517 "},"\r":{"ha":222,"x_min":0,"x_max":0,"o":""}," ":{"ha":222,"x_min":0,"x_max":0,"o":""},"!":{"ha":292,"x_min":0,"x_max":0,"o":"m 69 972 l 222 972 l 222 567 l 203 257 l 89 257 l 69 567 m 219 147 l 219 0 l 72 0 l 72 147 "},"\"":{"ha":467,"x_min":0,"x_max":0,"o":"m 208 972 l 171 658 l 89 658 l 53 972 m 414 972 l 376 658 l 294 658 l 258 972 "},"#":{"ha":572,"x_min":0,"x_max":0,"o":"m 22 278 l 33 386 l 101 386 l 128 640 l 58 640 l 69 749 l 139 749 l 163 972 l 283 972 l 260 749 l 358 749 l 382 972 l 503 972 l 479 749 l 550 749 l 539 640 l 468 640 l 442 386 l 513 386 l 501 278 l 431 278 l 401 0 l 281 0 l 310 278 l 211 278 l 182 0 l 61 0 l 90 278 m 347 640 l 249 640 l 222 386 l 321 386 "},"$":{"ha":556,"x_min":0,"x_max":0,"o":"m 215 21 b 92 97 162 32 121 57 b 50 250 64 137 50 188 l 50 314 l 194 314 l 194 240 b 274 156 194 184 221 156 b 353 243 326 156 353 185 b 325 341 353 279 344 312 b 222 443 306 370 272 404 b 92 581 160 492 117 538 b 54 725 67 623 54 671 b 95 874 54 785 68 835 b 215 950 122 913 163 938 l 215 1035 l 340 1035 l 340 950 b 463 874 394 939 435 914 b 504 722 490 835 504 784 l 504 694 l 360 694 l 360 732 b 283 818 360 789 334 818 b 207 735 232 818 207 790 b 235 642 207 701 216 671 b 338 540 253 614 288 580 b 468 401 400 490 443 444 b 506 253 493 358 506 308 b 463 98 506 190 491 138 b 340 21 435 58 394 32 l 340 -76 l 215 -76 l 215 21 "},"%":{"ha":818,"x_min":0,"x_max":0,"o":"m 86 472 b 49 588 61 499 49 538 l 49 831 b 86 946 49 881 61 919 b 196 986 111 973 148 986 b 306 946 244 986 281 973 b 343 831 331 919 343 881 l 343 588 b 306 472 343 538 331 499 b 196 432 281 445 244 432 b 86 472 148 432 111 445 m 646 972 l 269 0 l 172 0 l 549 972 m 246 838 b 196 899 246 878 229 899 b 146 838 163 899 146 878 l 146 581 b 196 519 146 540 163 519 b 246 581 229 519 246 540 m 513 26 b 475 142 488 53 475 92 l 475 385 b 513 500 475 435 488 473 b 622 540 538 527 574 540 b 732 500 670 540 707 527 b 769 385 757 473 769 435 l 769 142 b 732 26 769 92 757 53 b 622 -14 707 0 670 -14 b 513 26 574 -14 538 0 m 672 392 b 622 453 672 432 656 453 b 572 392 589 453 572 432 l 572 135 b 622 74 572 94 589 74 b 672 135 656 74 672 94 "},"&":{"ha":579,"x_min":0,"x_max":0,"o":"m 90 43 b 47 208 62 81 47 136 l 47 310 b 74 438 47 361 56 403 b 160 513 91 472 120 497 l 160 515 b 80 587 124 530 97 554 b 54 714 63 620 54 662 l 54 732 b 111 911 54 811 73 870 b 282 972 149 952 206 972 l 457 972 l 457 833 l 285 833 b 227 811 260 833 241 826 b 207 739 214 796 207 772 l 207 679 b 230 600 207 642 215 616 b 299 576 245 584 268 576 l 358 576 l 358 685 l 508 685 l 508 576 l 551 576 l 551 438 l 508 438 l 508 118 b 511 51 508 90 509 68 b 525 0 513 34 518 17 l 372 0 b 358 76 365 20 360 46 l 356 76 b 298 8 339 46 320 23 b 217 -14 276 -6 249 -14 b 90 43 161 -14 119 5 m 358 438 l 300 438 b 224 409 265 438 239 428 b 200 314 208 390 200 358 l 200 215 b 219 146 200 183 206 160 b 274 125 232 132 250 125 b 358 213 322 125 350 154 "},"'":{"ha":261,"x_min":0,"x_max":0,"o":"m 208 972 l 171 658 l 89 658 l 53 972 "},"(":{"ha":383,"x_min":0,"x_max":0,"o":"m 123 -21 b 74 143 90 12 74 66 l 74 829 b 123 993 74 906 90 961 b 288 1042 156 1025 211 1042 l 335 1042 l 335 917 l 297 917 b 243 898 272 917 254 910 b 226 829 232 885 226 863 l 226 143 b 243 74 226 110 232 87 b 297 56 254 62 272 56 l 335 56 l 335 -69 l 288 -69 b 123 -21 211 -69 156 -53 "},")":{"ha":383,"x_min":0,"x_max":0,"o":"m 86 56 b 140 74 111 56 129 62 b 157 143 151 87 157 110 l 157 829 b 140 898 157 863 151 885 b 86 917 129 910 111 917 l 49 917 l 49 1042 l 96 1042 b 260 993 173 1042 228 1025 b 310 829 293 961 310 906 l 310 143 b 260 -21 310 66 293 12 b 96 -69 228 -53 173 -69 l 49 -69 l 49 56 "},"*":{"ha":586,"x_min":0,"x_max":0,"o":"m 233 683 l 21 729 l 60 847 l 258 753 l 231 972 l 356 972 l 328 753 l 526 847 l 565 729 l 353 683 l 500 528 l 400 454 l 293 642 l 186 454 l 86 528 "},"+":{"ha":556,"x_min":0,"x_max":0,"o":"m 38 432 l 38 540 l 224 540 l 224 728 l 332 728 l 332 540 l 518 540 l 518 432 l 332 432 l 332 242 l 224 242 l 224 432 "},",":{"ha":261,"x_min":0,"x_max":0,"o":"m 57 0 l 57 147 l 204 147 l 204 15 l 128 -167 l 57 -167 l 107 0 "},"-":{"ha":375,"x_min":0,"x_max":0,"o":"m 340 556 l 340 417 l 35 417 l 35 556 "},".":{"ha":261,"x_min":0,"x_max":0,"o":"m 204 147 l 204 0 l 57 0 l 57 147 "},"/":{"ha":540,"x_min":0,"x_max":0,"o":"m 528 972 l 144 0 l 13 0 l 396 972 "},":":{"ha":261,"x_min":0,"x_max":0,"o":"m 204 676 l 204 529 l 57 529 l 57 676 m 204 147 l 204 0 l 57 0 l 57 147 "},";":{"ha":261,"x_min":0,"x_max":0,"o":"m 204 676 l 204 529 l 57 529 l 57 676 m 57 0 l 57 147 l 204 147 l 204 15 l 119 -167 l 49 -167 l 107 0 "},"<":{"ha":556,"x_min":0,"x_max":0,"o":"m 56 538 l 481 721 l 481 610 l 188 486 l 481 363 l 481 251 l 56 435 "},"=":{"ha":556,"x_min":0,"x_max":0,"o":"m 504 653 l 504 544 l 51 544 l 51 653 m 504 428 l 504 319 l 51 319 l 51 428 "},">":{"ha":556,"x_min":0,"x_max":0,"o":"m 368 486 l 75 610 l 75 721 l 500 538 l 500 435 l 75 251 l 75 363 "},"?":{"ha":504,"x_min":0,"x_max":0,"o":"m 163 315 b 178 413 163 350 168 382 b 238 521 189 444 209 480 b 306 643 271 568 294 609 b 324 751 318 677 324 713 b 304 824 324 785 317 809 b 247 847 291 840 272 847 b 190 824 222 847 203 840 b 171 751 177 809 171 785 l 171 646 l 26 646 l 26 742 b 83 923 26 820 45 881 b 250 986 121 965 177 986 b 419 923 324 986 380 965 b 476 742 457 881 476 820 b 453 619 476 699 469 658 b 375 486 438 579 412 535 b 313 387 345 446 325 413 b 296 310 302 360 296 335 l 296 257 l 163 257 l 163 315 m 303 147 l 303 0 l 156 0 l 156 147 "},"@":{"ha":967,"x_min":0,"x_max":0,"o":"m 144 47 b 35 403 71 133 35 252 b 92 721 35 520 54 626 b 266 945 131 815 189 890 b 547 1028 343 1000 437 1028 b 843 917 684 1028 783 991 b 933 619 903 843 933 744 b 890 367 933 516 919 431 b 785 227 862 302 827 255 b 663 185 744 199 703 185 b 542 276 588 185 547 215 l 539 276 b 486 213 525 248 507 227 b 408 193 465 200 439 193 b 312 237 367 193 334 208 b 278 360 289 266 278 307 b 281 407 278 371 279 387 l 296 547 b 463 753 312 684 367 753 b 576 668 520 753 558 725 l 579 668 l 592 747 l 721 747 l 681 360 l 679 338 b 707 311 679 320 688 311 b 790 406 743 311 771 343 b 818 617 809 470 818 540 b 750 831 818 707 795 779 b 542 910 705 884 635 910 b 262 774 419 910 326 864 b 165 396 197 683 165 557 b 247 128 165 281 192 192 b 489 33 301 65 381 33 b 640 54 544 33 595 40 b 776 128 684 68 730 93 l 765 -6 b 632 -66 722 -34 677 -54 b 481 -83 587 -78 536 -83 b 144 47 330 -83 218 -40 m 567 542 l 568 558 b 551 604 568 579 563 594 b 507 619 540 614 525 619 b 453 599 484 619 466 613 b 428 532 440 586 431 563 l 415 414 l 414 393 b 430 340 414 369 419 351 b 475 322 441 328 456 322 b 553 410 520 322 546 351 "},"A":{"ha":557,"x_min":0,"x_max":0,"o":"m 382 972 l 540 0 l 388 0 l 360 193 l 360 190 l 186 190 l 158 0 l 17 0 l 175 972 m 274 803 l 271 803 l 204 322 l 342 322 "},"B":{"ha":561,"x_min":0,"x_max":0,"o":"m 288 972 b 460 917 366 972 424 954 b 514 749 496 881 514 825 l 514 710 b 490 588 514 660 506 619 b 415 519 473 556 449 533 l 415 517 b 529 314 491 491 529 423 l 529 231 b 470 59 529 156 509 98 b 297 0 431 20 373 0 l 57 0 l 57 972 m 269 576 b 338 600 300 576 323 584 b 361 679 353 616 361 642 l 361 733 b 342 810 361 769 355 794 b 283 833 330 825 310 833 l 210 833 l 210 576 l 269 576 m 297 139 b 357 160 324 139 344 146 b 376 235 370 175 376 200 l 376 319 b 353 412 376 364 369 395 b 278 438 338 429 313 438 l 210 438 l 210 139 l 297 139 "},"C":{"ha":532,"x_min":0,"x_max":0,"o":"m 105 49 b 47 225 66 90 47 149 l 47 747 b 105 924 47 823 66 882 b 272 986 143 965 199 986 b 440 924 345 986 401 965 b 497 747 478 882 497 823 l 497 644 l 353 644 l 353 757 b 276 847 353 817 327 847 b 200 757 225 847 200 817 l 200 214 b 276 125 200 155 225 125 b 353 214 327 125 353 155 l 353 363 l 497 363 l 497 225 b 440 49 497 149 478 90 b 272 -14 401 7 345 -14 b 105 49 199 -14 143 7 "},"D":{"ha":564,"x_min":0,"x_max":0,"o":"m 290 972 b 461 911 366 972 423 952 b 518 732 499 870 518 811 l 518 240 b 461 61 518 162 499 102 b 290 0 423 20 366 0 l 57 0 l 57 972 m 288 139 b 345 161 313 139 332 146 b 365 233 359 176 365 200 l 365 739 b 345 811 365 772 359 796 b 288 833 332 826 313 833 l 210 833 l 210 139 l 288 139 "},"E":{"ha":504,"x_min":0,"x_max":0,"o":"m 474 972 l 474 833 l 210 833 l 210 576 l 419 576 l 419 438 l 210 438 l 210 139 l 474 139 l 474 0 l 57 0 l 57 972 "},"F":{"ha":478,"x_min":0,"x_max":0,"o":"m 461 972 l 461 833 l 210 833 l 210 563 l 407 563 l 407 424 l 210 424 l 210 0 l 57 0 l 57 972 "},"G":{"ha":543,"x_min":0,"x_max":0,"o":"m 104 49 b 46 231 65 91 46 152 l 46 742 b 104 923 46 820 65 881 b 274 986 143 965 200 986 b 443 923 348 986 404 965 b 501 742 482 881 501 820 l 501 658 l 357 658 l 357 751 b 278 847 357 815 331 847 b 199 751 225 847 199 815 l 199 219 b 278 125 199 156 225 125 b 357 219 331 125 357 156 l 357 410 l 281 410 l 281 549 l 501 549 l 501 231 b 443 49 501 152 482 91 b 274 -14 404 7 348 -14 b 104 49 200 -14 143 7 "},"H":{"ha":583,"x_min":0,"x_max":0,"o":"m 210 972 l 210 576 l 374 576 l 374 972 l 526 972 l 526 0 l 374 0 l 374 438 l 210 438 l 210 0 l 57 0 l 57 972 "},"I":{"ha":267,"x_min":0,"x_max":0,"o":"m 210 972 l 210 0 l 57 0 l 57 972 "},"J":{"ha":368,"x_min":0,"x_max":0,"o":"m 22 139 b 72 133 37 135 54 133 b 140 156 103 133 125 141 b 163 226 155 172 163 195 l 163 972 l 315 972 l 315 231 b 260 53 315 151 297 92 b 93 -6 224 14 168 -6 b 22 0 65 -6 42 -4 "},"K":{"ha":575,"x_min":0,"x_max":0,"o":"m 210 972 l 210 563 l 404 972 l 557 972 l 375 615 l 560 0 l 400 0 l 271 433 l 210 310 l 210 0 l 57 0 l 57 972 "},"L":{"ha":478,"x_min":0,"x_max":0,"o":"m 210 972 l 210 139 l 461 139 l 461 0 l 57 0 l 57 972 "},"M":{"ha":747,"x_min":0,"x_max":0,"o":"m 275 972 l 372 276 l 375 276 l 472 972 l 690 972 l 690 0 l 546 0 l 546 736 l 543 736 l 432 0 l 304 0 l 193 736 l 190 736 l 190 0 l 57 0 l 57 972 "},"N":{"ha":593,"x_min":0,"x_max":0,"o":"m 249 972 l 397 390 l 400 390 l 400 972 l 536 972 l 536 0 l 379 0 l 196 710 l 193 710 l 193 0 l 57 0 l 57 972 "},"O":{"ha":556,"x_min":0,"x_max":0,"o":"m 106 50 b 46 231 66 93 46 153 l 46 742 b 106 922 46 819 66 880 b 278 986 145 965 203 986 b 450 922 353 986 410 965 b 510 742 490 880 510 819 l 510 231 b 450 50 510 153 490 93 b 278 -14 410 7 353 -14 b 106 50 203 -14 145 7 m 357 751 b 278 847 357 815 331 847 b 199 751 225 847 199 815 l 199 221 b 278 125 199 157 225 125 b 357 221 331 125 357 157 "},"P":{"ha":536,"x_min":0,"x_max":0,"o":"m 282 972 b 453 911 358 972 415 952 b 510 732 491 870 510 811 l 510 636 b 453 457 510 557 491 498 b 282 396 415 416 358 396 l 210 396 l 210 0 l 57 0 l 57 972 m 282 535 b 338 556 307 535 326 542 b 357 626 351 569 357 593 l 357 742 b 338 813 357 775 351 799 b 282 833 326 826 307 833 l 210 833 l 210 535 l 282 535 "},"Q":{"ha":556,"x_min":0,"x_max":0,"o":"m 379 3 b 278 -14 350 -8 317 -14 b 106 50 203 -14 145 7 b 46 231 66 93 46 153 l 46 742 b 106 922 46 819 66 880 b 278 986 145 965 203 986 b 450 922 353 986 410 965 b 510 742 490 880 510 819 l 510 231 b 467 71 510 166 495 113 b 488 53 472 62 479 56 b 524 49 496 50 508 49 l 547 49 l 547 -90 l 507 -90 b 379 3 438 -90 395 -59 m 357 751 b 278 847 357 815 331 847 b 199 751 225 847 199 815 l 199 221 b 278 125 199 157 225 125 b 357 221 331 125 357 157 "},"R":{"ha":560,"x_min":0,"x_max":0,"o":"m 283 972 b 456 917 362 972 419 954 b 510 749 492 881 510 825 l 510 689 b 410 497 510 588 476 524 l 410 494 b 488 426 447 483 473 461 b 511 289 503 392 511 346 l 511 118 b 514 51 511 90 512 68 b 528 0 516 34 520 17 l 372 0 b 361 44 367 16 363 31 b 358 119 359 58 358 83 l 358 297 b 337 390 358 342 351 373 b 263 417 322 408 298 417 l 210 417 l 210 0 l 57 0 l 57 972 m 265 556 b 334 579 296 556 319 563 b 357 658 349 595 357 621 l 357 733 b 338 810 357 769 351 794 b 279 833 326 825 306 833 l 210 833 l 210 556 l 265 556 "},"S":{"ha":517,"x_min":0,"x_max":0,"o":"m 88 49 b 31 231 50 91 31 152 l 31 286 l 175 286 l 175 219 b 254 125 175 156 201 125 b 313 148 280 125 300 133 b 333 222 327 163 333 188 b 306 330 333 263 324 299 b 203 442 287 361 253 398 b 71 592 140 497 96 547 b 33 744 46 637 33 688 b 92 923 33 821 53 881 b 261 986 131 965 187 986 b 427 923 334 986 390 965 b 483 742 465 881 483 820 l 483 701 l 339 701 l 339 751 b 319 824 339 785 332 809 b 263 847 306 840 288 847 b 186 754 212 847 186 816 b 215 656 186 719 196 686 b 318 544 234 625 268 588 b 450 393 382 489 426 438 b 486 233 474 348 486 294 b 427 50 486 154 466 93 b 256 -14 388 7 331 -14 b 88 49 181 -14 125 7 "},"T":{"ha":506,"x_min":0,"x_max":0,"o":"m 17 833 l 17 972 l 489 972 l 489 833 l 329 833 l 329 0 l 176 0 l 176 833 "},"U":{"ha":558,"x_min":0,"x_max":0,"o":"m 110 49 b 51 231 71 91 51 152 l 51 972 l 204 972 l 204 219 b 224 147 204 186 211 162 b 282 125 238 132 257 125 b 340 147 307 125 326 132 b 360 219 353 162 360 186 l 360 972 l 507 972 l 507 231 b 449 49 507 152 488 91 b 279 -14 410 7 353 -14 b 110 49 205 -14 149 7 "},"V":{"ha":531,"x_min":0,"x_max":0,"o":"m 171 972 l 271 218 l 274 218 l 374 972 l 514 972 l 367 0 l 164 0 l 17 972 "},"W":{"ha":774,"x_min":0,"x_max":0,"o":"m 168 972 l 236 225 l 239 225 l 311 972 l 478 972 l 550 225 l 553 225 l 621 972 l 753 972 l 654 0 l 464 0 l 394 656 l 392 656 l 322 0 l 119 0 l 21 972 "},"X":{"ha":564,"x_min":0,"x_max":0,"o":"m 24 972 l 185 972 l 288 658 l 290 658 l 396 972 l 540 972 l 372 497 l 549 0 l 388 0 l 276 339 l 274 339 l 160 0 l 15 0 l 192 497 "},"Y":{"ha":547,"x_min":0,"x_max":0,"o":"m 13 972 l 175 972 l 279 615 l 282 615 l 386 972 l 535 972 l 350 414 l 350 0 l 197 0 l 197 414 "},"Z":{"ha":503,"x_min":0,"x_max":0,"o":"m 310 833 l 40 833 l 40 972 l 474 972 l 474 836 l 190 139 l 474 139 l 474 0 l 26 0 l 26 136 "},"[":{"ha":383,"x_min":0,"x_max":0,"o":"m 335 1042 l 335 917 l 235 917 l 235 56 l 335 56 l 335 -69 l 82 -69 l 82 1042 "},"\\":{"ha":540,"x_min":0,"x_max":0,"o":"m 144 972 l 528 0 l 396 0 l 13 972 "},"]":{"ha":383,"x_min":0,"x_max":0,"o":"m 149 56 l 149 917 l 49 917 l 49 1042 l 301 1042 l 301 -69 l 49 -69 l 49 56 "},"^":{"ha":556,"x_min":0,"x_max":0,"o":"m 328 972 l 526 597 l 401 597 l 276 833 l 151 597 l 26 597 l 225 972 "},"_":{"ha":417,"x_min":0,"x_max":0,"o":"m 417 -14 l 417 -125 l 0 -125 l 0 -14 "},"`":{"ha":694,"x_min":0,"x_max":0,"o":"m 333 1197 l 431 1038 l 315 1038 l 167 1197 "},"a":{"ha":557,"x_min":0,"x_max":0,"o":"m 382 972 l 540 0 l 388 0 l 360 193 l 360 190 l 186 190 l 158 0 l 17 0 l 175 972 m 274 803 l 271 803 l 204 322 l 342 322 "},"b":{"ha":561,"x_min":0,"x_max":0,"o":"m 288 972 b 460 917 366 972 424 954 b 514 749 496 881 514 825 l 514 710 b 490 588 514 660 506 619 b 415 519 473 556 449 533 l 415 517 b 529 314 491 491 529 423 l 529 231 b 470 59 529 156 509 98 b 297 0 431 20 373 0 l 57 0 l 57 972 m 269 576 b 338 600 300 576 323 584 b 361 679 353 616 361 642 l 361 733 b 342 810 361 769 355 794 b 283 833 330 825 310 833 l 210 833 l 210 576 l 269 576 m 297 139 b 357 160 324 139 344 146 b 376 235 370 175 376 200 l 376 319 b 353 412 376 364 369 395 b 278 438 338 429 313 438 l 210 438 l 210 139 l 297 139 "},"c":{"ha":532,"x_min":0,"x_max":0,"o":"m 105 49 b 47 225 66 90 47 149 l 47 747 b 105 924 47 823 66 882 b 272 986 143 965 199 986 b 440 924 345 986 401 965 b 497 747 478 882 497 823 l 497 644 l 353 644 l 353 757 b 276 847 353 817 327 847 b 200 757 225 847 200 817 l 200 214 b 276 125 200 155 225 125 b 353 214 327 125 353 155 l 353 363 l 497 363 l 497 225 b 440 49 497 149 478 90 b 272 -14 401 7 345 -14 b 105 49 199 -14 143 7 "},"d":{"ha":564,"x_min":0,"x_max":0,"o":"m 290 972 b 461 911 366 972 423 952 b 518 732 499 870 518 811 l 518 240 b 461 61 518 162 499 102 b 290 0 423 20 366 0 l 57 0 l 57 972 m 288 139 b 345 161 313 139 332 146 b 365 233 359 176 365 200 l 365 739 b 345 811 365 772 359 796 b 288 833 332 826 313 833 l 210 833 l 210 139 l 288 139 "},"e":{"ha":504,"x_min":0,"x_max":0,"o":"m 474 972 l 474 833 l 210 833 l 210 576 l 419 576 l 419 438 l 210 438 l 210 139 l 474 139 l 474 0 l 57 0 l 57 972 "},"f":{"ha":478,"x_min":0,"x_max":0,"o":"m 461 972 l 461 833 l 210 833 l 210 563 l 407 563 l 407 424 l 210 424 l 210 0 l 57 0 l 57 972 "},"g":{"ha":543,"x_min":0,"x_max":0,"o":"m 104 49 b 46 231 65 91 46 152 l 46 742 b 104 923 46 820 65 881 b 274 986 143 965 200 986 b 443 923 348 986 404 965 b 501 742 482 881 501 820 l 501 658 l 357 658 l 357 751 b 278 847 357 815 331 847 b 199 751 225 847 199 815 l 199 219 b 278 125 199 156 225 125 b 357 219 331 125 357 156 l 357 410 l 281 410 l 281 549 l 501 549 l 501 231 b 443 49 501 152 482 91 b 274 -14 404 7 348 -14 b 104 49 200 -14 143 7 "},"h":{"ha":583,"x_min":0,"x_max":0,"o":"m 210 972 l 210 576 l 374 576 l 374 972 l 526 972 l 526 0 l 374 0 l 374 438 l 210 438 l 210 0 l 57 0 l 57 972 "},"i":{"ha":267,"x_min":0,"x_max":0,"o":"m 210 972 l 210 0 l 57 0 l 57 972 "},"j":{"ha":368,"x_min":0,"x_max":0,"o":"m 22 139 b 72 133 37 135 54 133 b 140 156 103 133 125 141 b 163 226 155 172 163 195 l 163 972 l 315 972 l 315 231 b 260 53 315 151 297 92 b 93 -6 224 14 168 -6 b 22 0 65 -6 42 -4 "},"k":{"ha":575,"x_min":0,"x_max":0,"o":"m 210 972 l 210 563 l 404 972 l 557 972 l 375 615 l 560 0 l 400 0 l 271 433 l 210 310 l 210 0 l 57 0 l 57 972 "},"l":{"ha":478,"x_min":0,"x_max":0,"o":"m 210 972 l 210 139 l 461 139 l 461 0 l 57 0 l 57 972 "},"m":{"ha":747,"x_min":0,"x_max":0,"o":"m 275 972 l 372 276 l 375 276 l 472 972 l 690 972 l 690 0 l 546 0 l 546 736 l 543 736 l 432 0 l 304 0 l 193 736 l 190 736 l 190 0 l 57 0 l 57 972 "},"n":{"ha":593,"x_min":0,"x_max":0,"o":"m 249 972 l 397 390 l 400 390 l 400 972 l 536 972 l 536 0 l 379 0 l 196 710 l 193 710 l 193 0 l 57 0 l 57 972 "},"o":{"ha":556,"x_min":0,"x_max":0,"o":"m 106 50 b 46 231 66 93 46 153 l 46 742 b 106 922 46 819 66 880 b 278 986 145 965 203 986 b 450 922 353 986 410 965 b 510 742 490 880 510 819 l 510 231 b 450 50 510 153 490 93 b 278 -14 410 7 353 -14 b 106 50 203 -14 145 7 m 357 751 b 278 847 357 815 331 847 b 199 751 225 847 199 815 l 199 221 b 278 125 199 157 225 125 b 357 221 331 125 357 157 "},"p":{"ha":536,"x_min":0,"x_max":0,"o":"m 282 972 b 453 911 358 972 415 952 b 510 732 491 870 510 811 l 510 636 b 453 457 510 557 491 498 b 282 396 415 416 358 396 l 210 396 l 210 0 l 57 0 l 57 972 m 282 535 b 338 556 307 535 326 542 b 357 626 351 569 357 593 l 357 742 b 338 813 357 775 351 799 b 282 833 326 826 307 833 l 210 833 l 210 535 l 282 535 "},"q":{"ha":556,"x_min":0,"x_max":0,"o":"m 379 3 b 278 -14 350 -8 317 -14 b 106 50 203 -14 145 7 b 46 231 66 93 46 153 l 46 742 b 106 922 46 819 66 880 b 278 986 145 965 203 986 b 450 922 353 986 410 965 b 510 742 490 880 510 819 l 510 231 b 467 71 510 166 495 113 b 488 53 472 62 479 56 b 524 49 496 50 508 49 l 547 49 l 547 -90 l 507 -90 b 379 3 438 -90 395 -59 m 357 751 b 278 847 357 815 331 847 b 199 751 225 847 199 815 l 199 221 b 278 125 199 157 225 125 b 357 221 331 125 357 157 "},"r":{"ha":560,"x_min":0,"x_max":0,"o":"m 283 972 b 456 917 362 972 419 954 b 510 749 492 881 510 825 l 510 689 b 410 497 510 588 476 524 l 410 494 b 488 426 447 483 473 461 b 511 289 503 392 511 346 l 511 118 b 514 51 511 90 512 68 b 528 0 516 34 520 17 l 372 0 b 361 44 367 16 363 31 b 358 119 359 58 358 83 l 358 297 b 337 390 358 342 351 373 b 263 417 322 408 298 417 l 210 417 l 210 0 l 57 0 l 57 972 m 265 556 b 334 579 296 556 319 563 b 357 658 349 595 357 621 l 357 733 b 338 810 357 769 351 794 b 279 833 326 825 306 833 l 210 833 l 210 556 l 265 556 "},"s":{"ha":517,"x_min":0,"x_max":0,"o":"m 88 49 b 31 231 50 91 31 152 l 31 286 l 175 286 l 175 219 b 254 125 175 156 201 125 b 313 148 280 125 300 133 b 333 222 327 163 333 188 b 306 330 333 263 324 299 b 203 442 287 361 253 398 b 71 592 140 497 96 547 b 33 744 46 637 33 688 b 92 923 33 821 53 881 b 261 986 131 965 187 986 b 427 923 334 986 390 965 b 483 742 465 881 483 820 l 483 701 l 339 701 l 339 751 b 319 824 339 785 332 809 b 263 847 306 840 288 847 b 186 754 212 847 186 816 b 215 656 186 719 196 686 b 318 544 234 625 268 588 b 450 393 382 489 426 438 b 486 233 474 348 486 294 b 427 50 486 154 466 93 b 256 -14 388 7 331 -14 b 88 49 181 -14 125 7 "},"t":{"ha":506,"x_min":0,"x_max":0,"o":"m 17 833 l 17 972 l 489 972 l 489 833 l 329 833 l 329 0 l 176 0 l 176 833 "},"u":{"ha":558,"x_min":0,"x_max":0,"o":"m 110 49 b 51 231 71 91 51 152 l 51 972 l 204 972 l 204 219 b 224 147 204 186 211 162 b 282 125 238 132 257 125 b 340 147 307 125 326 132 b 360 219 353 162 360 186 l 360 972 l 507 972 l 507 231 b 449 49 507 152 488 91 b 279 -14 410 7 353 -14 b 110 49 205 -14 149 7 "},"v":{"ha":531,"x_min":0,"x_max":0,"o":"m 171 972 l 271 218 l 274 218 l 374 972 l 514 972 l 367 0 l 164 0 l 17 972 "},"w":{"ha":774,"x_min":0,"x_max":0,"o":"m 168 972 l 236 225 l 239 225 l 311 972 l 478 972 l 550 225 l 553 225 l 621 972 l 753 972 l 654 0 l 464 0 l 394 656 l 392 656 l 322 0 l 119 0 l 21 972 "},"x":{"ha":564,"x_min":0,"x_max":0,"o":"m 24 972 l 185 972 l 288 658 l 290 658 l 396 972 l 540 972 l 372 497 l 549 0 l 388 0 l 276 339 l 274 339 l 160 0 l 15 0 l 192 497 "},"y":{"ha":547,"x_min":0,"x_max":0,"o":"m 13 972 l 175 972 l 279 615 l 282 615 l 386 972 l 535 972 l 350 414 l 350 0 l 197 0 l 197 414 "},"z":{"ha":503,"x_min":0,"x_max":0,"o":"m 310 833 l 40 833 l 40 972 l 474 972 l 474 836 l 190 139 l 474 139 l 474 0 l 26 0 l 26 136 "},"{":{"ha":383,"x_min":0,"x_max":0,"o":"m 160 -31 b 117 85 131 -5 117 34 l 117 340 b 99 406 117 373 111 395 b 29 424 87 418 63 424 l 29 549 b 99 566 63 549 87 554 b 117 632 111 578 117 600 l 117 888 b 160 1003 117 938 131 977 b 271 1042 188 1029 225 1042 l 349 1042 l 349 917 l 326 917 b 271 895 301 917 283 909 b 253 818 259 881 253 855 l 253 610 b 168 488 253 545 225 504 l 168 485 b 253 363 225 468 253 427 l 253 154 b 271 77 253 117 259 91 b 326 56 283 63 301 56 l 349 56 l 349 -69 l 271 -69 b 160 -31 225 -69 188 -56 "},"|":{"ha":694,"x_min":0,"x_max":0,"o":"m 410 1111 l 410 -278 l 285 -278 l 285 1111 "},"}":{"ha":383,"x_min":0,"x_max":0,"o":"m 57 56 b 113 77 82 56 100 63 b 131 154 125 91 131 117 l 131 363 b 215 485 131 427 159 468 l 215 488 b 131 610 159 504 131 545 l 131 818 b 113 895 131 855 125 881 b 57 917 100 909 82 917 l 35 917 l 35 1042 l 113 1042 b 224 1003 158 1042 195 1029 b 267 888 252 977 267 938 l 267 632 b 285 566 267 600 273 578 b 354 549 297 554 320 549 l 354 424 b 285 406 320 424 297 418 b 267 340 273 395 267 373 l 267 85 b 224 -31 267 34 252 -5 b 113 -69 195 -56 158 -69 l 35 -69 l 35 56 "},"~":{"ha":556,"x_min":0,"x_max":0,"o":"m 17 444 b 97 551 45 494 72 529 b 185 583 121 572 150 583 b 229 575 200 583 215 581 b 288 543 243 569 263 559 b 340 512 313 527 330 517 b 369 504 349 507 359 504 b 410 522 385 504 399 510 b 460 588 421 533 438 555 l 539 528 b 459 422 510 479 484 443 b 371 389 434 400 405 389 b 326 397 355 389 340 392 b 268 429 313 403 293 413 b 216 460 243 445 226 455 b 186 468 206 466 196 468 b 146 451 170 468 157 462 b 96 385 135 439 118 417 l 17 444 "}," ":{"ha":222,"x_min":0,"x_max":0,"o":""},"¡":{"ha":292,"x_min":0,"x_max":0,"o":"m 219 972 l 219 825 l 72 825 l 72 972 m 89 715 l 203 715 l 222 406 l 222 0 l 69 0 l 69 406 "},"¢":{"ha":556,"x_min":0,"x_max":0,"o":"m 364 671 b 288 761 364 731 338 761 b 211 671 237 761 211 731 l 211 300 b 288 211 211 241 237 211 b 364 300 338 211 364 241 l 364 390 l 508 390 l 508 311 b 467 155 508 247 494 195 b 344 78 439 115 398 89 l 344 -28 l 219 -28 l 219 79 b 99 156 167 90 127 116 b 58 311 72 195 58 247 l 58 661 b 99 817 58 725 72 777 b 219 893 127 856 167 882 l 219 986 l 344 986 l 344 894 b 467 817 398 883 439 858 b 508 661 494 777 508 725 l 508 617 l 364 617 "},"£":{"ha":556,"x_min":0,"x_max":0,"o":"m 49 131 b 146 214 90 150 123 178 b 181 331 169 250 181 289 b 176 375 181 346 179 361 l 49 375 l 49 493 l 151 493 b 101 590 128 536 111 568 b 74 667 90 613 81 638 b 63 765 66 695 63 728 b 121 925 63 831 82 884 b 288 986 160 966 215 986 b 456 923 362 986 418 965 b 513 742 494 881 513 820 l 513 685 l 368 685 l 368 751 b 349 824 368 785 362 809 b 292 847 336 840 317 847 b 235 824 267 847 248 840 b 215 751 222 809 215 785 b 231 649 215 715 220 681 b 272 542 241 616 255 581 l 293 493 l 463 493 l 463 375 l 319 375 b 300 246 319 327 313 284 b 224 139 287 208 262 172 l 503 139 l 503 0 l 49 0 l 49 131 "},"¤":{"ha":556,"x_min":0,"x_max":0,"o":"m 124 393 b 99 486 107 420 99 451 b 124 579 99 522 107 553 l 43 653 l 111 721 l 185 639 b 278 665 213 656 244 665 b 371 639 312 665 343 656 l 444 721 l 513 653 l 432 579 b 457 486 449 553 457 522 b 432 393 457 451 449 420 l 513 319 l 444 251 l 371 333 b 278 307 343 316 312 307 b 185 333 244 307 213 316 l 111 251 l 43 319 m 331 433 b 351 486 345 446 351 464 b 331 540 351 508 345 526 b 278 560 318 553 300 560 b 224 540 256 560 238 553 b 204 486 211 526 204 508 b 224 433 204 464 211 446 b 278 413 238 419 256 413 b 331 433 300 413 318 419 "},"¥":{"ha":556,"x_min":0,"x_max":0,"o":"m 78 156 l 78 251 l 201 251 l 201 353 l 78 353 l 78 449 l 192 449 l 15 972 l 178 972 l 283 610 l 286 610 l 392 972 l 540 972 l 364 449 l 483 449 l 483 353 l 354 353 l 354 251 l 483 251 l 483 156 l 354 156 l 354 0 l 201 0 l 201 156 "},"¦":{"ha":694,"x_min":0,"x_max":0,"o":"m 410 1111 l 410 556 l 285 556 l 285 1111 m 410 278 l 410 -278 l 285 -278 l 285 278 "},"§":{"ha":556,"x_min":0,"x_max":0,"o":"m 106 -94 b 47 50 67 -57 47 -9 l 47 106 l 192 106 l 192 71 b 213 3 192 43 199 21 b 275 -22 228 -14 248 -22 b 337 1 302 -22 322 -14 b 358 65 351 17 358 38 b 333 127 358 90 350 111 b 239 175 316 143 284 159 b 77 269 161 202 107 233 b 32 404 47 306 32 350 b 57 513 32 444 40 480 b 136 590 74 545 100 571 l 136 593 b 65 675 102 618 78 645 b 44 779 51 705 44 739 b 105 928 44 839 65 889 b 278 986 145 967 203 986 b 449 931 353 986 410 968 b 508 788 489 895 508 847 l 508 746 l 364 746 l 364 767 b 342 834 364 794 357 817 b 281 860 328 851 307 860 b 219 836 254 860 233 852 b 197 772 204 820 197 799 b 223 710 197 747 206 727 b 317 663 240 694 271 678 b 478 568 394 636 448 604 b 524 433 509 532 524 487 b 499 325 524 394 515 357 b 419 246 482 293 456 266 l 419 243 b 492 162 455 218 479 191 b 511 58 505 133 511 98 b 451 -90 511 -2 491 -51 b 278 -149 410 -129 353 -149 b 106 -94 203 -149 146 -130 m 357 345 b 378 413 371 364 378 387 b 349 486 378 444 368 469 b 264 532 329 504 301 519 b 199 492 234 525 213 511 b 178 425 185 473 178 451 b 207 351 178 394 188 369 b 292 306 226 334 255 319 b 357 345 321 313 343 326 "},"¨":{"ha":694,"x_min":0,"x_max":0,"o":"m 308 1179 l 308 1038 l 172 1038 l 172 1179 m 522 1179 l 522 1038 l 386 1038 l 386 1179 "},"©":{"ha":1025,"x_min":0,"x_max":0,"o":"m 265 51 b 92 231 191 95 133 155 b 29 486 50 306 29 392 b 92 742 29 581 50 666 b 265 921 133 818 191 877 b 513 986 338 964 421 986 b 760 921 604 986 687 964 b 933 742 834 877 892 818 b 996 486 975 666 996 581 b 933 231 996 392 975 306 b 760 51 892 155 834 95 b 513 -14 687 8 604 -14 b 265 51 421 -14 338 8 m 710 135 b 847 278 768 169 814 217 b 896 486 879 340 896 409 b 847 694 896 563 879 632 b 710 838 814 755 768 803 b 513 889 651 872 586 889 b 315 838 439 889 374 872 b 178 694 257 803 211 755 b 129 486 146 632 129 563 b 178 278 129 409 146 340 b 315 135 211 217 257 169 b 513 83 374 100 439 83 b 710 135 586 83 651 100 m 390 224 b 350 350 363 253 350 295 l 350 619 b 390 747 350 675 363 718 b 507 792 416 777 455 792 b 624 747 559 792 598 777 b 664 619 651 718 664 675 l 664 569 l 564 569 l 564 628 b 510 694 564 672 546 694 b 456 628 474 694 456 672 l 456 344 b 510 279 456 301 474 279 b 564 344 546 279 564 301 l 564 428 l 664 428 l 664 350 b 624 224 664 295 651 253 b 507 181 598 195 559 181 b 390 224 455 181 416 195 "},"ª":{"ha":389,"x_min":0,"x_max":0,"o":"m 69 497 b 42 596 51 520 42 553 l 42 601 b 89 727 42 658 57 700 b 239 772 120 754 170 769 l 239 846 b 197 897 239 880 225 897 b 161 883 181 897 169 893 b 150 838 154 874 150 859 l 150 819 l 58 819 l 58 832 b 199 986 58 935 105 986 b 301 946 244 986 278 973 b 336 832 325 919 336 881 l 336 469 l 254 469 l 250 536 l 247 536 b 150 463 225 487 193 463 b 69 497 114 463 87 474 m 239 700 b 163 677 205 698 179 691 b 139 617 147 664 139 644 l 139 604 b 185 551 139 569 154 551 b 239 601 214 551 232 568 m 336 392 l 336 297 l 42 297 l 42 392 "},"«":{"ha":467,"x_min":0,"x_max":0,"o":"m 126 633 l 238 633 l 158 481 l 238 319 l 126 319 l 19 481 m 332 633 l 443 633 l 365 481 l 443 319 l 332 319 l 226 481 "},"¬":{"ha":556,"x_min":0,"x_max":0,"o":"m 31 432 l 31 540 l 511 540 l 511 242 l 403 242 l 403 432 "},"­":{"ha":375,"x_min":0,"x_max":0,"o":"m 340 556 l 340 417 l 35 417 l 35 556 "},"®":{"ha":1025,"x_min":0,"x_max":0,"o":"m 265 51 b 92 231 191 95 133 155 b 29 486 50 306 29 392 b 92 742 29 581 50 666 b 265 921 133 818 191 877 b 513 986 338 964 421 986 b 760 921 604 986 687 964 b 933 742 834 877 892 818 b 996 486 975 666 996 581 b 933 231 996 392 975 306 b 760 51 892 155 834 95 b 513 -14 687 8 604 -14 b 265 51 421 -14 338 8 m 710 135 b 847 278 768 169 814 217 b 896 486 879 340 896 409 b 847 694 896 563 879 632 b 710 838 814 755 768 803 b 513 889 651 872 586 889 b 315 838 439 889 374 872 b 178 694 257 803 211 755 b 129 486 146 632 129 563 b 178 278 129 409 146 340 b 315 135 211 217 257 169 b 513 83 374 100 439 83 b 710 135 586 83 651 100 m 521 783 b 640 745 575 783 614 771 b 678 628 665 720 678 681 l 678 615 b 606 486 678 550 654 507 l 606 483 b 661 432 631 472 650 455 b 678 342 672 409 678 379 l 678 271 b 690 189 678 235 682 207 l 582 189 b 574 219 578 199 576 209 b 572 272 573 228 572 246 l 572 343 b 556 410 572 375 567 397 b 501 429 544 423 526 429 l 465 429 l 465 189 l 360 189 l 360 783 m 508 526 b 556 542 529 526 544 532 b 572 597 567 553 572 571 l 572 615 b 559 669 572 639 568 657 b 515 686 550 680 536 686 l 465 686 l 465 526 l 508 526 "},"¯":{"ha":694,"x_min":0,"x_max":0,"o":"m 507 1158 l 507 1050 l 188 1050 l 188 1158 "},"°":{"ha":556,"x_min":0,"x_max":0,"o":"m 153 685 b 101 810 119 719 101 761 b 153 935 101 859 119 900 b 278 986 187 969 229 986 b 403 935 327 986 369 969 b 454 810 437 900 454 859 b 403 685 454 761 437 719 b 278 633 369 650 327 633 b 153 685 229 633 187 650 m 330 758 b 351 810 344 772 351 789 b 330 862 351 830 344 847 b 278 883 316 876 298 883 b 226 862 257 883 240 876 b 206 810 213 847 206 830 b 226 758 206 789 213 772 b 278 738 240 744 257 738 b 330 758 298 738 316 744 "},"±":{"ha":556,"x_min":0,"x_max":0,"o":"m 222 336 l 222 489 l 50 489 l 50 597 l 222 597 l 222 756 l 331 756 l 331 597 l 503 597 l 503 489 l 331 489 l 331 336 l 503 336 l 503 228 l 50 228 l 50 336 "},"²":{"ha":392,"x_min":0,"x_max":0,"o":"m 53 557 b 74 672 53 601 60 640 b 149 778 88 703 113 739 b 224 875 185 815 210 847 b 244 965 238 903 244 933 b 233 1015 244 988 241 1004 b 194 1031 225 1025 212 1031 b 144 969 161 1031 144 1010 l 144 913 l 53 913 l 53 964 b 90 1078 53 1014 65 1052 b 197 1118 114 1105 150 1118 b 305 1079 244 1118 280 1105 b 342 968 329 1053 342 1016 b 315 855 342 928 333 891 b 222 731 298 819 267 778 b 164 655 194 699 174 674 b 149 592 154 636 149 615 l 149 575 l 333 575 l 333 488 l 53 488 l 53 557 "},"³":{"ha":392,"x_min":0,"x_max":0,"o":"m 84 514 b 47 629 59 541 47 579 l 47 681 l 139 681 l 139 622 b 189 561 139 581 156 561 b 226 577 206 561 218 566 b 239 632 235 588 239 606 l 239 688 b 224 748 239 716 234 736 b 176 765 215 759 199 765 l 143 765 l 143 853 l 181 853 b 239 919 219 853 239 875 l 239 960 b 226 1015 239 986 235 1004 b 189 1031 218 1025 206 1031 b 139 969 156 1031 139 1010 l 139 932 l 47 932 l 47 963 b 84 1078 47 1013 59 1051 b 192 1118 109 1105 144 1118 b 299 1078 239 1118 275 1105 b 336 963 324 1051 336 1013 l 336 936 b 319 858 336 904 331 878 b 268 813 308 838 291 823 l 268 810 b 336 681 313 790 336 747 l 336 629 b 299 514 336 579 324 541 b 192 474 275 487 239 474 b 84 514 144 474 109 487 "},"´":{"ha":694,"x_min":0,"x_max":0,"o":"m 528 1197 l 379 1038 l 264 1038 l 361 1197 "},"µ":{"ha":563,"x_min":0,"x_max":0,"o":"m 210 694 l 210 207 b 282 128 210 154 234 128 b 341 151 307 128 327 135 b 363 224 355 166 363 190 l 363 694 l 515 694 l 515 0 l 376 0 l 376 72 b 321 15 363 48 344 29 b 243 -6 298 1 272 -6 l 210 -6 l 210 -222 l 57 -222 l 57 694 "},"¶":{"ha":624,"x_min":0,"x_max":0,"o":"m 242 424 b 137 454 203 424 168 434 b 63 539 106 475 81 503 b 36 661 45 575 36 616 l 36 732 b 106 909 36 808 59 867 b 292 972 152 951 214 972 l 553 972 l 553 -135 l 439 -135 l 439 861 l 356 861 l 356 -135 l 242 -135 l 242 424 "},"·":{"ha":261,"x_min":0,"x_max":0,"o":"m 204 560 l 204 413 l 57 413 l 57 560 "},"¸":{"ha":694,"x_min":0,"x_max":0,"o":"m 244 -186 b 210 -124 221 -174 210 -153 l 210 -110 l 313 -110 l 313 -121 b 322 -142 313 -130 316 -137 b 343 -149 328 -146 335 -149 b 371 -141 356 -149 365 -146 b 379 -115 376 -136 379 -127 b 367 -87 379 -102 375 -93 b 328 -79 358 -82 345 -79 l 321 -79 l 321 19 l 389 19 l 389 -54 b 460 -69 420 -54 444 -59 b 485 -119 477 -80 485 -96 b 450 -187 485 -154 473 -176 b 343 -204 427 -199 391 -204 b 244 -186 300 -204 268 -198 "},"¹":{"ha":392,"x_min":0,"x_max":0,"o":"m 81 958 l 81 1026 b 169 1043 120 1026 150 1032 b 217 1104 188 1054 204 1075 l 281 1104 l 281 488 l 183 488 l 183 958 "},"º":{"ha":392,"x_min":0,"x_max":0,"o":"m 87 503 b 49 617 61 530 49 568 l 49 832 b 87 946 49 881 61 919 b 196 986 112 973 149 986 b 305 946 243 986 279 973 b 343 832 330 919 343 881 l 343 617 b 305 503 343 568 330 530 b 196 463 279 476 243 463 b 87 503 149 463 112 476 m 246 838 b 196 897 246 877 229 897 b 158 883 179 897 167 893 b 146 838 150 874 146 859 l 146 611 b 158 565 146 590 150 575 b 196 551 167 556 179 551 b 246 611 229 551 246 571 m 343 392 l 343 297 l 49 297 l 49 392 "},"»":{"ha":465,"x_min":0,"x_max":0,"o":"m 101 481 l 24 633 l 135 633 l 240 481 l 135 319 l 24 319 m 307 481 l 229 633 l 340 633 l 446 481 l 340 319 l 229 319 "},"¼":{"ha":907,"x_min":0,"x_max":0,"o":"m 81 826 l 81 894 b 169 911 120 894 150 900 b 217 972 188 922 204 943 l 281 972 l 281 356 l 183 356 l 183 826 m 690 972 l 314 0 l 217 0 l 593 972 m 547 111 l 547 199 l 724 617 l 829 617 l 829 199 l 875 199 l 875 111 l 829 111 l 829 0 l 732 0 l 732 111 m 733 442 l 731 442 l 635 199 l 733 199 "},"½":{"ha":907,"x_min":0,"x_max":0,"o":"m 81 826 l 81 894 b 169 911 120 894 150 900 b 217 972 188 922 204 943 l 281 972 l 281 356 l 183 356 l 183 826 m 690 972 l 314 0 l 217 0 l 593 972 m 568 69 b 589 184 568 114 575 152 b 664 290 603 216 628 251 b 739 388 700 327 725 360 b 760 478 753 415 760 445 b 748 527 760 500 756 516 b 710 543 740 538 727 543 b 660 482 676 543 660 523 l 660 425 l 568 425 l 568 476 b 605 591 568 526 580 565 b 713 631 629 617 665 631 b 820 592 760 631 796 618 b 857 481 845 566 857 529 b 831 367 857 441 848 403 b 738 243 813 332 782 290 b 679 167 709 212 689 186 b 664 104 669 148 664 127 l 664 88 l 849 88 l 849 0 l 568 0 l 568 69 "},"¾":{"ha":907,"x_min":0,"x_max":0,"o":"m 84 382 b 47 497 59 409 47 447 l 47 549 l 139 549 l 139 490 b 189 429 139 450 156 429 b 226 445 206 429 218 434 b 239 500 235 456 239 474 l 239 556 b 224 616 239 584 234 604 b 176 633 215 628 199 633 l 143 633 l 143 721 l 181 721 b 239 788 219 721 239 743 l 239 828 b 226 883 239 854 235 872 b 189 899 218 893 206 899 b 139 838 156 899 139 878 l 139 800 l 47 800 l 47 831 b 84 946 47 881 59 919 b 192 986 109 973 144 986 b 299 946 239 986 275 973 b 336 831 324 919 336 881 l 336 804 b 319 726 336 772 331 746 b 268 681 308 706 291 691 l 268 678 b 336 549 313 658 336 615 l 336 497 b 299 382 336 447 324 409 b 192 342 275 355 239 342 b 84 382 144 342 109 355 m 690 972 l 314 0 l 217 0 l 593 972 m 547 111 l 547 199 l 724 617 l 829 617 l 829 199 l 875 199 l 875 111 l 829 111 l 829 0 l 732 0 l 732 111 m 733 442 l 731 442 l 635 199 l 733 199 "},"¿":{"ha":504,"x_min":0,"x_max":0,"o":"m 201 825 l 201 972 l 349 972 l 349 825 m 342 657 b 326 559 342 623 336 590 b 267 451 315 528 295 492 b 199 329 233 404 211 363 b 181 221 187 295 181 259 b 200 148 181 188 187 163 b 257 125 213 133 232 125 b 314 148 282 125 301 133 b 333 221 327 163 333 188 l 333 326 l 478 326 l 478 231 b 421 49 478 152 459 91 b 254 -14 383 7 327 -14 b 85 49 180 -14 124 7 b 28 231 47 91 28 152 b 51 353 28 273 35 314 b 129 486 66 393 92 437 b 191 585 159 526 179 559 b 208 663 203 612 208 638 l 208 715 l 342 715 l 342 657 "},"À":{"ha":557,"x_min":0,"x_max":0,"o":"m 382 972 l 540 0 l 388 0 l 360 193 l 360 190 l 186 190 l 158 0 l 17 0 l 175 972 m 274 803 l 271 803 l 204 322 l 342 322 m 265 1197 l 363 1038 l 247 1038 l 99 1197 "},"Á":{"ha":557,"x_min":0,"x_max":0,"o":"m 382 972 l 540 0 l 388 0 l 360 193 l 360 190 l 186 190 l 158 0 l 17 0 l 175 972 m 274 803 l 271 803 l 204 322 l 342 322 m 460 1197 l 311 1038 l 196 1038 l 293 1197 "},"Â":{"ha":557,"x_min":0,"x_max":0,"o":"m 382 972 l 540 0 l 388 0 l 360 193 l 360 190 l 186 190 l 158 0 l 17 0 l 175 972 m 274 803 l 271 803 l 204 322 l 342 322 m 351 1197 l 465 1038 l 350 1038 l 279 1114 l 208 1038 l 93 1038 l 207 1197 "},"Ã":{"ha":557,"x_min":0,"x_max":0,"o":"m 382 972 l 540 0 l 388 0 l 360 193 l 360 190 l 186 190 l 158 0 l 17 0 l 175 972 m 274 803 l 271 803 l 204 322 l 342 322 m 86 1076 b 143 1165 104 1116 123 1146 b 213 1193 163 1184 187 1193 b 256 1186 229 1193 244 1191 b 296 1167 269 1181 282 1175 b 320 1154 304 1162 312 1158 b 343 1149 328 1150 336 1149 b 372 1161 354 1149 364 1153 b 399 1203 381 1169 389 1183 l 472 1158 b 415 1070 455 1119 436 1089 b 346 1042 395 1051 372 1042 b 302 1049 329 1042 315 1044 b 263 1068 290 1053 276 1060 b 238 1081 254 1073 246 1077 b 215 1086 230 1084 223 1086 b 186 1074 204 1086 194 1082 b 160 1032 178 1065 169 1051 l 86 1076 "},"Ä":{"ha":557,"x_min":0,"x_max":0,"o":"m 382 972 l 540 0 l 388 0 l 360 193 l 360 190 l 186 190 l 158 0 l 17 0 l 175 972 m 274 803 l 271 803 l 204 322 l 342 322 m 240 1179 l 240 1038 l 104 1038 l 104 1179 m 454 1179 l 454 1038 l 318 1038 l 318 1179 "},"Å":{"ha":557,"x_min":0,"x_max":0,"o":"m 382 972 l 540 0 l 388 0 l 360 193 l 360 190 l 186 190 l 158 0 l 17 0 l 175 972 m 274 803 l 271 803 l 204 322 l 342 322 m 191 1058 b 156 1144 167 1081 156 1110 b 191 1231 156 1179 167 1208 b 279 1267 215 1255 244 1267 b 367 1231 314 1267 344 1255 b 403 1144 391 1208 403 1179 b 367 1058 403 1110 391 1081 b 279 1022 344 1034 314 1022 b 191 1058 244 1022 215 1034 m 311 1109 b 324 1144 319 1118 324 1130 b 311 1180 324 1159 319 1171 b 279 1193 303 1189 292 1193 b 247 1180 266 1193 256 1189 b 235 1144 239 1171 235 1159 b 247 1109 235 1130 239 1118 b 279 1096 256 1100 266 1096 b 311 1109 292 1096 303 1100 "},"Æ":{"ha":806,"x_min":0,"x_max":0,"o":"m 775 972 l 775 833 l 511 833 l 511 576 l 721 576 l 721 438 l 511 438 l 511 139 l 775 139 l 775 0 l 358 0 l 358 190 l 208 190 l 160 0 l 14 0 l 274 972 m 358 785 l 356 785 l 242 322 l 358 322 "},"Ç":{"ha":532,"x_min":0,"x_max":0,"o":"m 353 757 b 276 847 353 817 327 847 b 200 757 225 847 200 817 l 200 214 b 276 125 200 155 225 125 b 353 214 327 125 353 155 l 353 363 l 497 363 l 497 225 b 449 59 497 156 481 100 b 308 -12 416 18 369 -6 l 308 -54 b 380 -69 340 -54 364 -59 b 404 -119 396 -80 404 -96 b 369 -187 404 -154 393 -176 b 263 -204 346 -199 311 -204 b 164 -186 220 -204 187 -198 b 129 -124 141 -174 129 -153 l 129 -110 l 232 -110 l 232 -121 b 241 -142 232 -130 235 -137 b 263 -149 247 -146 254 -149 b 290 -141 275 -149 285 -146 b 299 -115 296 -136 299 -127 b 286 -87 299 -102 294 -93 b 247 -79 278 -82 265 -79 l 240 -79 l 240 -12 b 97 58 177 -6 129 18 b 47 225 64 99 47 155 l 47 747 b 105 924 47 823 66 882 b 272 986 143 965 199 986 b 440 924 345 986 401 965 b 497 747 478 882 497 823 l 497 644 l 353 644 "},"È":{"ha":504,"x_min":0,"x_max":0,"o":"m 474 972 l 474 833 l 210 833 l 210 576 l 419 576 l 419 438 l 210 438 l 210 139 l 474 139 l 474 0 l 57 0 l 57 972 m 251 1197 l 349 1038 l 233 1038 l 85 1197 "},"É":{"ha":504,"x_min":0,"x_max":0,"o":"m 474 972 l 474 833 l 210 833 l 210 576 l 419 576 l 419 438 l 210 438 l 210 139 l 474 139 l 474 0 l 57 0 l 57 972 m 446 1197 l 297 1038 l 182 1038 l 279 1197 "},"Ê":{"ha":504,"x_min":0,"x_max":0,"o":"m 474 972 l 474 833 l 210 833 l 210 576 l 419 576 l 419 438 l 210 438 l 210 139 l 474 139 l 474 0 l 57 0 l 57 972 m 338 1197 l 451 1038 l 336 1038 l 265 1114 l 194 1038 l 79 1038 l 193 1197 "},"Ë":{"ha":504,"x_min":0,"x_max":0,"o":"m 474 972 l 474 833 l 210 833 l 210 576 l 419 576 l 419 438 l 210 438 l 210 139 l 474 139 l 474 0 l 57 0 l 57 972 m 226 1179 l 226 1038 l 90 1038 l 90 1179 m 440 1179 l 440 1038 l 304 1038 l 304 1179 "},"Ì":{"ha":267,"x_min":0,"x_max":0,"o":"m 210 972 l 210 0 l 57 0 l 57 972 m 119 1197 l 217 1038 l 101 1038 l -47 1197 "},"Í":{"ha":267,"x_min":0,"x_max":0,"o":"m 210 972 l 210 0 l 57 0 l 57 972 m 314 1197 l 165 1038 l 50 1038 l 147 1197 "},"Î":{"ha":267,"x_min":0,"x_max":0,"o":"m 210 972 l 210 0 l 57 0 l 57 972 m 206 1197 l 319 1038 l 204 1038 l 133 1114 l 63 1038 l -53 1038 l 61 1197 "},"Ï":{"ha":267,"x_min":0,"x_max":0,"o":"m 210 972 l 210 0 l 57 0 l 57 972 m 94 1179 l 94 1038 l -42 1038 l -42 1179 m 308 1179 l 308 1038 l 172 1038 l 172 1179 "},"Ð":{"ha":588,"x_min":0,"x_max":0,"o":"m 485 911 b 542 732 523 870 542 811 l 542 240 b 485 61 542 162 523 102 b 314 0 447 20 390 0 l 81 0 l 81 442 l 14 442 l 14 572 l 81 572 l 81 972 l 314 972 b 485 911 390 972 447 952 m 389 739 b 369 811 389 772 382 796 b 311 833 355 826 336 833 l 233 833 l 233 572 l 311 572 l 311 442 l 233 442 l 233 139 l 311 139 b 369 161 336 139 355 146 b 389 233 382 176 389 200 l 389 739 "},"Ñ":{"ha":593,"x_min":0,"x_max":0,"o":"m 249 972 l 397 390 l 400 390 l 400 972 l 536 972 l 536 0 l 379 0 l 196 710 l 193 710 l 193 0 l 57 0 l 57 972 m 104 1076 b 161 1165 122 1116 141 1146 b 231 1193 181 1184 205 1193 b 274 1186 247 1193 262 1191 b 314 1167 287 1181 300 1175 b 338 1154 322 1162 330 1158 b 361 1149 346 1150 354 1149 b 390 1161 372 1149 382 1153 b 417 1203 399 1169 407 1183 l 490 1158 b 433 1070 473 1119 454 1089 b 364 1042 413 1051 390 1042 b 320 1049 347 1042 333 1044 b 281 1068 308 1053 294 1060 b 256 1081 272 1073 264 1077 b 233 1086 248 1084 241 1086 b 204 1074 222 1086 213 1082 b 178 1032 196 1065 187 1051 l 104 1076 "},"Ò":{"ha":556,"x_min":0,"x_max":0,"o":"m 106 50 b 46 231 66 93 46 153 l 46 742 b 106 922 46 819 66 880 b 278 986 145 965 203 986 b 450 922 353 986 410 965 b 510 742 490 880 510 819 l 510 231 b 450 50 510 153 490 93 b 278 -14 410 7 353 -14 b 106 50 203 -14 145 7 m 357 751 b 278 847 357 815 331 847 b 199 751 225 847 199 815 l 199 221 b 278 125 199 157 225 125 b 357 221 331 125 357 157 m 264 1197 l 361 1038 l 246 1038 l 97 1197 "},"Ó":{"ha":556,"x_min":0,"x_max":0,"o":"m 106 50 b 46 231 66 93 46 153 l 46 742 b 106 922 46 819 66 880 b 278 986 145 965 203 986 b 450 922 353 986 410 965 b 510 742 490 880 510 819 l 510 231 b 450 50 510 153 490 93 b 278 -14 410 7 353 -14 b 106 50 203 -14 145 7 m 357 751 b 278 847 357 815 331 847 b 199 751 225 847 199 815 l 199 221 b 278 125 199 157 225 125 b 357 221 331 125 357 157 m 458 1197 l 310 1038 l 194 1038 l 292 1197 "},"Ô":{"ha":556,"x_min":0,"x_max":0,"o":"m 106 50 b 46 231 66 93 46 153 l 46 742 b 106 922 46 819 66 880 b 278 986 145 965 203 986 b 450 922 353 986 410 965 b 510 742 490 880 510 819 l 510 231 b 450 50 510 153 490 93 b 278 -14 410 7 353 -14 b 106 50 203 -14 145 7 m 357 751 b 278 847 357 815 331 847 b 199 751 225 847 199 815 l 199 221 b 278 125 199 157 225 125 b 357 221 331 125 357 157 m 350 1197 l 464 1038 l 349 1038 l 278 1114 l 207 1038 l 92 1038 l 206 1197 "},"Õ":{"ha":556,"x_min":0,"x_max":0,"o":"m 106 50 b 46 231 66 93 46 153 l 46 742 b 106 922 46 819 66 880 b 278 986 145 965 203 986 b 450 922 353 986 410 965 b 510 742 490 880 510 819 l 510 231 b 450 50 510 153 490 93 b 278 -14 410 7 353 -14 b 106 50 203 -14 145 7 m 357 751 b 278 847 357 815 331 847 b 199 751 225 847 199 815 l 199 221 b 278 125 199 157 225 125 b 357 221 331 125 357 157 m 85 1076 b 142 1165 102 1116 121 1146 b 211 1193 162 1184 185 1193 b 255 1186 228 1193 242 1191 b 294 1167 267 1181 281 1175 b 319 1154 303 1162 311 1158 b 342 1149 327 1150 334 1149 b 371 1161 353 1149 363 1153 b 397 1203 379 1169 388 1183 l 471 1158 b 414 1070 453 1119 434 1089 b 344 1042 394 1051 370 1042 b 301 1049 328 1042 313 1044 b 261 1068 288 1053 275 1060 b 237 1081 253 1073 245 1077 b 214 1086 229 1084 221 1086 b 185 1074 203 1086 193 1082 b 158 1032 176 1065 168 1051 l 85 1076 "},"Ö":{"ha":556,"x_min":0,"x_max":0,"o":"m 106 50 b 46 231 66 93 46 153 l 46 742 b 106 922 46 819 66 880 b 278 986 145 965 203 986 b 450 922 353 986 410 965 b 510 742 490 880 510 819 l 510 231 b 450 50 510 153 490 93 b 278 -14 410 7 353 -14 b 106 50 203 -14 145 7 m 357 751 b 278 847 357 815 331 847 b 199 751 225 847 199 815 l 199 221 b 278 125 199 157 225 125 b 357 221 331 125 357 157 m 239 1179 l 239 1038 l 103 1038 l 103 1179 m 453 1179 l 453 1038 l 317 1038 l 317 1179 "},"×":{"ha":556,"x_min":0,"x_max":0,"o":"m 203 486 l 57 638 l 131 711 l 278 560 l 425 713 l 499 639 l 351 486 l 499 333 l 425 260 l 278 413 l 129 260 l 56 333 "},"Ø":{"ha":556,"x_min":0,"x_max":0,"o":"m 483 874 b 510 742 501 838 510 794 l 510 231 b 450 50 510 153 490 93 b 278 -14 410 7 353 -14 b 139 22 222 -14 176 -2 l 115 -36 l 32 0 l 72 99 b 46 231 55 134 46 178 l 46 742 b 106 922 46 819 66 880 b 278 986 145 965 203 986 b 417 950 333 986 380 974 l 440 1008 l 524 972 l 483 874 m 353 792 b 278 847 344 829 319 847 b 199 751 225 847 199 815 l 199 411 m 203 181 b 278 125 212 144 237 125 b 357 221 331 125 357 157 l 357 561 "},"Ù":{"ha":558,"x_min":0,"x_max":0,"o":"m 110 49 b 51 231 71 91 51 152 l 51 972 l 204 972 l 204 219 b 224 147 204 186 211 162 b 282 125 238 132 257 125 b 340 147 307 125 326 132 b 360 219 353 162 360 186 l 360 972 l 507 972 l 507 231 b 449 49 507 152 488 91 b 279 -14 410 7 353 -14 b 110 49 205 -14 149 7 m 265 1197 l 363 1038 l 247 1038 l 99 1197 "},"Ú":{"ha":558,"x_min":0,"x_max":0,"o":"m 110 49 b 51 231 71 91 51 152 l 51 972 l 204 972 l 204 219 b 224 147 204 186 211 162 b 282 125 238 132 257 125 b 340 147 307 125 326 132 b 360 219 353 162 360 186 l 360 972 l 507 972 l 507 231 b 449 49 507 152 488 91 b 279 -14 410 7 353 -14 b 110 49 205 -14 149 7 m 460 1197 l 311 1038 l 196 1038 l 293 1197 "},"Û":{"ha":558,"x_min":0,"x_max":0,"o":"m 110 49 b 51 231 71 91 51 152 l 51 972 l 204 972 l 204 219 b 224 147 204 186 211 162 b 282 125 238 132 257 125 b 340 147 307 125 326 132 b 360 219 353 162 360 186 l 360 972 l 507 972 l 507 231 b 449 49 507 152 488 91 b 279 -14 410 7 353 -14 b 110 49 205 -14 149 7 m 351 1197 l 465 1038 l 350 1038 l 279 1114 l 208 1038 l 93 1038 l 207 1197 "},"Ü":{"ha":558,"x_min":0,"x_max":0,"o":"m 110 49 b 51 231 71 91 51 152 l 51 972 l 204 972 l 204 219 b 224 147 204 186 211 162 b 282 125 238 132 257 125 b 340 147 307 125 326 132 b 360 219 353 162 360 186 l 360 972 l 507 972 l 507 231 b 449 49 507 152 488 91 b 279 -14 410 7 353 -14 b 110 49 205 -14 149 7 m 240 1179 l 240 1038 l 104 1038 l 104 1179 m 454 1179 l 454 1038 l 318 1038 l 318 1179 "},"Ý":{"ha":547,"x_min":0,"x_max":0,"o":"m 13 972 l 175 972 l 279 615 l 282 615 l 386 972 l 535 972 l 350 414 l 350 0 l 197 0 l 197 414 m 454 1197 l 306 1038 l 190 1038 l 288 1197 "},"Þ":{"ha":536,"x_min":0,"x_max":0,"o":"m 210 972 l 210 835 l 282 835 b 453 774 358 835 415 814 b 510 594 491 733 510 673 l 510 499 b 453 319 510 420 491 360 b 282 258 415 279 358 258 l 210 258 l 210 0 l 57 0 l 57 972 m 282 397 b 338 418 307 397 326 404 b 357 489 351 432 357 456 l 357 604 b 338 675 357 638 351 661 b 282 696 326 689 307 696 l 210 696 l 210 397 l 282 397 "},"ß":{"ha":565,"x_min":0,"x_max":0,"o":"m 521 972 l 521 836 l 414 574 b 535 350 494 549 535 474 l 535 240 b 478 61 535 162 516 102 b 307 0 440 20 383 0 l 269 0 l 269 139 l 307 139 b 363 160 332 139 351 146 b 382 231 376 174 382 197 l 382 360 b 363 431 382 393 376 417 b 307 451 351 444 332 451 l 269 451 l 269 581 l 371 833 l 210 833 l 210 0 l 57 0 l 57 972 "},"à":{"ha":557,"x_min":0,"x_max":0,"o":"m 382 972 l 540 0 l 388 0 l 360 193 l 360 190 l 186 190 l 158 0 l 17 0 l 175 972 m 274 803 l 271 803 l 204 322 l 342 322 m 265 1197 l 363 1038 l 247 1038 l 99 1197 "},"á":{"ha":557,"x_min":0,"x_max":0,"o":"m 382 972 l 540 0 l 388 0 l 360 193 l 360 190 l 186 190 l 158 0 l 17 0 l 175 972 m 274 803 l 271 803 l 204 322 l 342 322 m 460 1197 l 311 1038 l 196 1038 l 293 1197 "},"â":{"ha":557,"x_min":0,"x_max":0,"o":"m 382 972 l 540 0 l 388 0 l 360 193 l 360 190 l 186 190 l 158 0 l 17 0 l 175 972 m 274 803 l 271 803 l 204 322 l 342 322 m 351 1197 l 465 1038 l 350 1038 l 279 1114 l 208 1038 l 93 1038 l 207 1197 "},"ã":{"ha":557,"x_min":0,"x_max":0,"o":"m 382 972 l 540 0 l 388 0 l 360 193 l 360 190 l 186 190 l 158 0 l 17 0 l 175 972 m 274 803 l 271 803 l 204 322 l 342 322 m 86 1076 b 143 1165 104 1116 123 1146 b 213 1193 163 1184 187 1193 b 256 1186 229 1193 244 1191 b 296 1167 269 1181 282 1175 b 320 1154 304 1162 312 1158 b 343 1149 328 1150 336 1149 b 372 1161 354 1149 364 1153 b 399 1203 381 1169 389 1183 l 472 1158 b 415 1070 455 1119 436 1089 b 346 1042 395 1051 372 1042 b 302 1049 329 1042 315 1044 b 263 1068 290 1053 276 1060 b 238 1081 254 1073 246 1077 b 215 1086 230 1084 223 1086 b 186 1074 204 1086 194 1082 b 160 1032 178 1065 169 1051 l 86 1076 "},"ä":{"ha":557,"x_min":0,"x_max":0,"o":"m 382 972 l 540 0 l 388 0 l 360 193 l 360 190 l 186 190 l 158 0 l 17 0 l 175 972 m 274 803 l 271 803 l 204 322 l 342 322 m 240 1179 l 240 1038 l 104 1038 l 104 1179 m 454 1179 l 454 1038 l 318 1038 l 318 1179 "},"å":{"ha":557,"x_min":0,"x_max":0,"o":"m 382 972 l 540 0 l 388 0 l 360 193 l 360 190 l 186 190 l 158 0 l 17 0 l 175 972 m 274 803 l 271 803 l 204 322 l 342 322 m 191 1058 b 156 1144 167 1081 156 1110 b 191 1231 156 1179 167 1208 b 279 1267 215 1255 244 1267 b 367 1231 314 1267 344 1255 b 403 1144 391 1208 403 1179 b 367 1058 403 1110 391 1081 b 279 1022 344 1034 314 1022 b 191 1058 244 1022 215 1034 m 311 1109 b 324 1144 319 1118 324 1130 b 311 1180 324 1159 319 1171 b 279 1193 303 1189 292 1193 b 247 1180 266 1193 256 1189 b 235 1144 239 1171 235 1159 b 247 1109 235 1130 239 1118 b 279 1096 256 1100 266 1096 b 311 1109 292 1096 303 1100 "},"æ":{"ha":806,"x_min":0,"x_max":0,"o":"m 775 972 l 775 833 l 511 833 l 511 576 l 721 576 l 721 438 l 511 438 l 511 139 l 775 139 l 775 0 l 358 0 l 358 190 l 208 190 l 160 0 l 14 0 l 274 972 m 358 785 l 356 785 l 242 322 l 358 322 "},"ç":{"ha":532,"x_min":0,"x_max":0,"o":"m 353 757 b 276 847 353 817 327 847 b 200 757 225 847 200 817 l 200 214 b 276 125 200 155 225 125 b 353 214 327 125 353 155 l 353 363 l 497 363 l 497 225 b 449 59 497 156 481 100 b 308 -12 416 18 369 -6 l 308 -54 b 380 -69 340 -54 364 -59 b 404 -119 396 -80 404 -96 b 369 -187 404 -154 393 -176 b 263 -204 346 -199 311 -204 b 164 -186 220 -204 187 -198 b 129 -124 141 -174 129 -153 l 129 -110 l 232 -110 l 232 -121 b 241 -142 232 -130 235 -137 b 263 -149 247 -146 254 -149 b 290 -141 275 -149 285 -146 b 299 -115 296 -136 299 -127 b 286 -87 299 -102 294 -93 b 247 -79 278 -82 265 -79 l 240 -79 l 240 -12 b 97 58 177 -6 129 18 b 47 225 64 99 47 155 l 47 747 b 105 924 47 823 66 882 b 272 986 143 965 199 986 b 440 924 345 986 401 965 b 497 747 478 882 497 823 l 497 644 l 353 644 "},"è":{"ha":504,"x_min":0,"x_max":0,"o":"m 474 972 l 474 833 l 210 833 l 210 576 l 419 576 l 419 438 l 210 438 l 210 139 l 474 139 l 474 0 l 57 0 l 57 972 m 251 1197 l 349 1038 l 233 1038 l 85 1197 "},"é":{"ha":504,"x_min":0,"x_max":0,"o":"m 474 972 l 474 833 l 210 833 l 210 576 l 419 576 l 419 438 l 210 438 l 210 139 l 474 139 l 474 0 l 57 0 l 57 972 m 446 1197 l 297 1038 l 182 1038 l 279 1197 "},"ê":{"ha":504,"x_min":0,"x_max":0,"o":"m 474 972 l 474 833 l 210 833 l 210 576 l 419 576 l 419 438 l 210 438 l 210 139 l 474 139 l 474 0 l 57 0 l 57 972 m 338 1197 l 451 1038 l 336 1038 l 265 1114 l 194 1038 l 79 1038 l 193 1197 "},"ë":{"ha":504,"x_min":0,"x_max":0,"o":"m 474 972 l 474 833 l 210 833 l 210 576 l 419 576 l 419 438 l 210 438 l 210 139 l 474 139 l 474 0 l 57 0 l 57 972 m 226 1179 l 226 1038 l 90 1038 l 90 1179 m 440 1179 l 440 1038 l 304 1038 l 304 1179 "},"ì":{"ha":267,"x_min":0,"x_max":0,"o":"m 210 972 l 210 0 l 57 0 l 57 972 m 119 1197 l 217 1038 l 101 1038 l -47 1197 "},"í":{"ha":267,"x_min":0,"x_max":0,"o":"m 210 972 l 210 0 l 57 0 l 57 972 m 314 1197 l 165 1038 l 50 1038 l 147 1197 "},"î":{"ha":267,"x_min":0,"x_max":0,"o":"m 210 972 l 210 0 l 57 0 l 57 972 m 206 1197 l 319 1038 l 204 1038 l 133 1114 l 63 1038 l -53 1038 l 61 1197 "},"ï":{"ha":267,"x_min":0,"x_max":0,"o":"m 210 972 l 210 0 l 57 0 l 57 972 m 94 1179 l 94 1038 l -42 1038 l -42 1179 m 308 1179 l 308 1038 l 172 1038 l 172 1179 "},"ð":{"ha":588,"x_min":0,"x_max":0,"o":"m 485 911 b 542 732 523 870 542 811 l 542 240 b 485 61 542 162 523 102 b 314 0 447 20 390 0 l 81 0 l 81 442 l 14 442 l 14 572 l 81 572 l 81 972 l 314 972 b 485 911 390 972 447 952 m 389 739 b 369 811 389 772 382 796 b 311 833 355 826 336 833 l 233 833 l 233 572 l 311 572 l 311 442 l 233 442 l 233 139 l 311 139 b 369 161 336 139 355 146 b 389 233 382 176 389 200 l 389 739 "},"ñ":{"ha":593,"x_min":0,"x_max":0,"o":"m 249 972 l 397 390 l 400 390 l 400 972 l 536 972 l 536 0 l 379 0 l 196 710 l 193 710 l 193 0 l 57 0 l 57 972 m 104 1076 b 161 1165 122 1116 141 1146 b 231 1193 181 1184 205 1193 b 274 1186 247 1193 262 1191 b 314 1167 287 1181 300 1175 b 338 1154 322 1162 330 1158 b 361 1149 346 1150 354 1149 b 390 1161 372 1149 382 1153 b 417 1203 399 1169 407 1183 l 490 1158 b 433 1070 473 1119 454 1089 b 364 1042 413 1051 390 1042 b 320 1049 347 1042 333 1044 b 281 1068 308 1053 294 1060 b 256 1081 272 1073 264 1077 b 233 1086 248 1084 241 1086 b 204 1074 222 1086 213 1082 b 178 1032 196 1065 187 1051 l 104 1076 "},"ò":{"ha":556,"x_min":0,"x_max":0,"o":"m 106 50 b 46 231 66 93 46 153 l 46 742 b 106 922 46 819 66 880 b 278 986 145 965 203 986 b 450 922 353 986 410 965 b 510 742 490 880 510 819 l 510 231 b 450 50 510 153 490 93 b 278 -14 410 7 353 -14 b 106 50 203 -14 145 7 m 357 751 b 278 847 357 815 331 847 b 199 751 225 847 199 815 l 199 221 b 278 125 199 157 225 125 b 357 221 331 125 357 157 m 264 1197 l 361 1038 l 246 1038 l 97 1197 "},"ó":{"ha":556,"x_min":0,"x_max":0,"o":"m 106 50 b 46 231 66 93 46 153 l 46 742 b 106 922 46 819 66 880 b 278 986 145 965 203 986 b 450 922 353 986 410 965 b 510 742 490 880 510 819 l 510 231 b 450 50 510 153 490 93 b 278 -14 410 7 353 -14 b 106 50 203 -14 145 7 m 357 751 b 278 847 357 815 331 847 b 199 751 225 847 199 815 l 199 221 b 278 125 199 157 225 125 b 357 221 331 125 357 157 m 458 1197 l 310 1038 l 194 1038 l 292 1197 "},"ô":{"ha":556,"x_min":0,"x_max":0,"o":"m 106 50 b 46 231 66 93 46 153 l 46 742 b 106 922 46 819 66 880 b 278 986 145 965 203 986 b 450 922 353 986 410 965 b 510 742 490 880 510 819 l 510 231 b 450 50 510 153 490 93 b 278 -14 410 7 353 -14 b 106 50 203 -14 145 7 m 357 751 b 278 847 357 815 331 847 b 199 751 225 847 199 815 l 199 221 b 278 125 199 157 225 125 b 357 221 331 125 357 157 m 350 1197 l 464 1038 l 349 1038 l 278 1114 l 207 1038 l 92 1038 l 206 1197 "},"õ":{"ha":556,"x_min":0,"x_max":0,"o":"m 106 50 b 46 231 66 93 46 153 l 46 742 b 106 922 46 819 66 880 b 278 986 145 965 203 986 b 450 922 353 986 410 965 b 510 742 490 880 510 819 l 510 231 b 450 50 510 153 490 93 b 278 -14 410 7 353 -14 b 106 50 203 -14 145 7 m 357 751 b 278 847 357 815 331 847 b 199 751 225 847 199 815 l 199 221 b 278 125 199 157 225 125 b 357 221 331 125 357 157 m 85 1076 b 142 1165 102 1116 121 1146 b 211 1193 162 1184 185 1193 b 255 1186 228 1193 242 1191 b 294 1167 267 1181 281 1175 b 319 1154 303 1162 311 1158 b 342 1149 327 1150 334 1149 b 371 1161 353 1149 363 1153 b 397 1203 379 1169 388 1183 l 471 1158 b 414 1070 453 1119 434 1089 b 344 1042 394 1051 370 1042 b 301 1049 328 1042 313 1044 b 261 1068 288 1053 275 1060 b 237 1081 253 1073 245 1077 b 214 1086 229 1084 221 1086 b 185 1074 203 1086 193 1082 b 158 1032 176 1065 168 1051 l 85 1076 "},"ö":{"ha":556,"x_min":0,"x_max":0,"o":"m 106 50 b 46 231 66 93 46 153 l 46 742 b 106 922 46 819 66 880 b 278 986 145 965 203 986 b 450 922 353 986 410 965 b 510 742 490 880 510 819 l 510 231 b 450 50 510 153 490 93 b 278 -14 410 7 353 -14 b 106 50 203 -14 145 7 m 357 751 b 278 847 357 815 331 847 b 199 751 225 847 199 815 l 199 221 b 278 125 199 157 225 125 b 357 221 331 125 357 157 m 239 1179 l 239 1038 l 103 1038 l 103 1179 m 453 1179 l 453 1038 l 317 1038 l 317 1179 "},"÷":{"ha":556,"x_min":0,"x_max":0,"o":"m 351 771 l 351 624 l 204 624 l 204 771 m 518 540 l 518 432 l 38 432 l 38 540 m 351 347 l 351 200 l 204 200 l 204 347 "},"ø":{"ha":556,"x_min":0,"x_max":0,"o":"m 483 874 b 510 742 501 838 510 794 l 510 231 b 450 50 510 153 490 93 b 278 -14 410 7 353 -14 b 139 22 222 -14 176 -2 l 115 -36 l 32 0 l 72 99 b 46 231 55 134 46 178 l 46 742 b 106 922 46 819 66 880 b 278 986 145 965 203 986 b 417 950 333 986 380 974 l 440 1008 l 524 972 l 483 874 m 353 792 b 278 847 344 829 319 847 b 199 751 225 847 199 815 l 199 411 m 203 181 b 278 125 212 144 237 125 b 357 221 331 125 357 157 l 357 561 "},"ù":{"ha":558,"x_min":0,"x_max":0,"o":"m 110 49 b 51 231 71 91 51 152 l 51 972 l 204 972 l 204 219 b 224 147 204 186 211 162 b 282 125 238 132 257 125 b 340 147 307 125 326 132 b 360 219 353 162 360 186 l 360 972 l 507 972 l 507 231 b 449 49 507 152 488 91 b 279 -14 410 7 353 -14 b 110 49 205 -14 149 7 m 265 1197 l 363 1038 l 247 1038 l 99 1197 "},"ú":{"ha":558,"x_min":0,"x_max":0,"o":"m 110 49 b 51 231 71 91 51 152 l 51 972 l 204 972 l 204 219 b 224 147 204 186 211 162 b 282 125 238 132 257 125 b 340 147 307 125 326 132 b 360 219 353 162 360 186 l 360 972 l 507 972 l 507 231 b 449 49 507 152 488 91 b 279 -14 410 7 353 -14 b 110 49 205 -14 149 7 m 460 1197 l 311 1038 l 196 1038 l 293 1197 "},"û":{"ha":558,"x_min":0,"x_max":0,"o":"m 110 49 b 51 231 71 91 51 152 l 51 972 l 204 972 l 204 219 b 224 147 204 186 211 162 b 282 125 238 132 257 125 b 340 147 307 125 326 132 b 360 219 353 162 360 186 l 360 972 l 507 972 l 507 231 b 449 49 507 152 488 91 b 279 -14 410 7 353 -14 b 110 49 205 -14 149 7 m 351 1197 l 465 1038 l 350 1038 l 279 1114 l 208 1038 l 93 1038 l 207 1197 "},"ü":{"ha":558,"x_min":0,"x_max":0,"o":"m 110 49 b 51 231 71 91 51 152 l 51 972 l 204 972 l 204 219 b 224 147 204 186 211 162 b 282 125 238 132 257 125 b 340 147 307 125 326 132 b 360 219 353 162 360 186 l 360 972 l 507 972 l 507 231 b 449 49 507 152 488 91 b 279 -14 410 7 353 -14 b 110 49 205 -14 149 7 m 240 1179 l 240 1038 l 104 1038 l 104 1179 m 454 1179 l 454 1038 l 318 1038 l 318 1179 "},"ý":{"ha":547,"x_min":0,"x_max":0,"o":"m 13 972 l 175 972 l 279 615 l 282 615 l 386 972 l 535 972 l 350 414 l 350 0 l 197 0 l 197 414 m 454 1197 l 306 1038 l 190 1038 l 288 1197 "},"þ":{"ha":536,"x_min":0,"x_max":0,"o":"m 210 972 l 210 835 l 282 835 b 453 774 358 835 415 814 b 510 594 491 733 510 673 l 510 499 b 453 319 510 420 491 360 b 282 258 415 279 358 258 l 210 258 l 210 0 l 57 0 l 57 972 m 282 397 b 338 418 307 397 326 404 b 357 489 351 432 357 456 l 357 604 b 338 675 357 638 351 661 b 282 696 326 689 307 696 l 210 696 l 210 397 l 282 397 "},"ÿ":{"ha":547,"x_min":0,"x_max":0,"o":"m 13 972 l 175 972 l 279 615 l 282 615 l 386 972 l 535 972 l 350 414 l 350 0 l 197 0 l 197 414 m 235 1179 l 235 1038 l 99 1038 l 99 1179 m 449 1179 l 449 1038 l 313 1038 l 313 1179 "},"ı":{"ha":267,"x_min":0,"x_max":0,"o":"m 210 972 l 210 0 l 57 0 l 57 972 "},"Œ":{"ha":801,"x_min":0,"x_max":0,"o":"m 103 61 b 46 240 65 102 46 162 l 46 732 b 103 911 46 811 65 870 b 274 972 141 952 198 972 l 771 972 l 771 833 l 507 833 l 507 576 l 717 576 l 717 438 l 507 438 l 507 139 l 771 139 l 771 0 l 274 0 b 103 61 198 0 141 20 m 354 833 l 276 833 b 219 811 251 833 232 826 b 199 739 205 796 199 772 l 199 233 b 219 161 199 200 205 176 b 276 139 232 146 251 139 l 354 139 "},"œ":{"ha":801,"x_min":0,"x_max":0,"o":"m 103 61 b 46 240 65 102 46 162 l 46 732 b 103 911 46 811 65 870 b 274 972 141 952 198 972 l 771 972 l 771 833 l 507 833 l 507 576 l 717 576 l 717 438 l 507 438 l 507 139 l 771 139 l 771 0 l 274 0 b 103 61 198 0 141 20 m 354 833 l 276 833 b 219 811 251 833 232 826 b 199 739 205 796 199 772 l 199 233 b 219 161 199 200 205 176 b 276 139 232 146 251 139 l 354 139 "},"ʼ":{"ha":0,"x_min":0,"x_max":0,"o":"m -74 825 l -74 972 l 74 972 l 74 840 l 7 686 l -56 686 l -15 825 "},"ˆ":{"ha":694,"x_min":0,"x_max":0,"o":"m 419 1197 l 533 1038 l 418 1038 l 347 1114 l 276 1038 l 161 1038 l 275 1197 "},"˚":{"ha":694,"x_min":0,"x_max":0,"o":"m 259 1058 b 224 1144 235 1081 224 1110 b 259 1231 224 1179 235 1208 b 347 1267 283 1255 312 1267 b 435 1231 382 1267 412 1255 b 471 1144 459 1208 471 1179 b 435 1058 471 1110 459 1081 b 347 1022 412 1034 382 1022 b 259 1058 312 1022 283 1034 m 379 1109 b 392 1144 388 1118 392 1130 b 379 1180 392 1159 388 1171 b 347 1193 371 1189 360 1193 b 315 1180 334 1193 324 1189 b 303 1144 307 1171 303 1159 b 315 1109 303 1130 307 1118 b 347 1096 324 1100 334 1096 b 379 1109 360 1096 371 1100 "},"˜":{"ha":694,"x_min":0,"x_max":0,"o":"m 154 1076 b 211 1165 172 1116 191 1146 b 281 1193 231 1184 255 1193 b 324 1186 297 1193 312 1191 b 364 1167 337 1181 350 1175 b 388 1154 372 1162 380 1158 b 411 1149 396 1150 404 1149 b 440 1161 422 1149 432 1153 b 467 1203 449 1169 457 1183 l 540 1158 b 483 1070 523 1119 504 1089 b 414 1042 463 1051 440 1042 b 370 1049 397 1042 383 1044 b 331 1068 358 1053 344 1060 b 306 1081 322 1073 314 1077 b 283 1086 298 1084 291 1086 b 254 1074 272 1086 263 1082 b 228 1032 246 1065 237 1051 l 154 1076 "}," ":{"ha":417,"x_min":0,"x_max":0,"o":""},"​":{"ha":0,"x_min":0,"x_max":0,"o":""},"–":{"ha":417,"x_min":0,"x_max":0,"o":"m 417 549 l 417 424 l 0 424 l 0 549 "},"—":{"ha":694,"x_min":0,"x_max":0,"o":"m 694 549 l 694 424 l 0 424 l 0 549 "},"‘":{"ha":261,"x_min":0,"x_max":0,"o":"m 142 972 l 213 972 l 154 806 l 204 806 l 204 658 l 57 658 l 57 790 "},"’":{"ha":261,"x_min":0,"x_max":0,"o":"m 57 825 l 57 972 l 204 972 l 204 840 l 119 658 l 49 658 l 107 825 "},"‚":{"ha":261,"x_min":0,"x_max":0,"o":"m 58 0 l 58 147 l 206 147 l 206 15 l 129 -167 l 58 -167 l 108 0 "},"“":{"ha":467,"x_min":0,"x_max":0,"o":"m 142 972 l 213 972 l 154 806 l 204 806 l 204 658 l 57 658 l 57 790 m 347 972 l 418 972 l 360 806 l 410 806 l 410 658 l 263 658 l 263 790 "},"”":{"ha":467,"x_min":0,"x_max":0,"o":"m 57 825 l 57 972 l 204 972 l 204 840 l 119 658 l 49 658 l 107 825 m 263 825 l 263 972 l 410 972 l 410 840 l 325 658 l 254 658 l 313 825 "},"„":{"ha":467,"x_min":0,"x_max":0,"o":"m 57 0 l 57 147 l 204 147 l 204 15 l 119 -167 l 49 -167 l 107 0 m 263 0 l 263 147 l 410 147 l 410 15 l 325 -167 l 254 -167 l 313 0 "},"•":{"ha":417,"x_min":0,"x_max":0,"o":"m 95 373 b 49 486 64 404 49 442 b 95 599 49 531 64 568 b 208 646 126 630 164 646 b 322 599 253 646 291 630 b 368 486 353 568 368 531 b 322 373 368 442 353 404 b 208 326 291 342 253 326 b 95 373 164 326 126 342 "},"…":{"ha":694,"x_min":0,"x_max":0,"o":"m 190 147 l 190 0 l 43 0 l 43 147 m 421 147 l 421 0 l 274 0 l 274 147 m 651 147 l 651 0 l 504 0 l 504 147 "},"‹":{"ha":261,"x_min":0,"x_max":0,"o":"m 126 633 l 238 633 l 158 481 l 238 319 l 126 319 l 19 481 "},"›":{"ha":261,"x_min":0,"x_max":0,"o":"m 103 481 l 24 633 l 135 633 l 242 481 l 135 319 l 24 319 "},"⁄":{"ha":124,"x_min":0,"x_max":0,"o":"m 299 972 l -78 0 l -175 0 l 201 972 "},"⁴":{"ha":392,"x_min":0,"x_max":0,"o":"m 32 599 l 32 686 l 208 1104 l 314 1104 l 314 686 l 360 686 l 360 599 l 314 599 l 314 488 l 217 488 l 217 599 m 218 929 l 215 929 l 119 686 l 218 686 "},"€":{"ha":556,"x_min":0,"x_max":0,"o":"m 127 49 b 71 231 90 91 71 152 l 71 389 l 32 389 l 32 465 l 71 465 l 71 542 l 32 542 l 32 618 l 71 618 l 71 742 b 127 923 71 820 90 881 b 294 986 165 965 220 986 b 462 923 369 986 424 965 b 518 742 499 881 518 820 l 518 696 l 374 696 l 374 751 b 355 825 374 786 367 810 b 299 847 342 840 324 847 b 242 825 274 847 255 840 b 224 751 230 810 224 786 l 224 618 l 438 618 l 438 542 l 224 542 l 224 465 l 438 465 l 438 389 l 224 389 l 224 219 b 242 147 224 186 230 162 b 299 125 255 132 274 125 b 355 147 324 125 342 132 b 374 219 367 162 374 186 l 374 311 l 518 311 l 518 231 b 462 49 518 152 499 91 b 294 -14 424 7 369 -14 b 127 49 220 -14 165 7 "},"™":{"ha":831,"x_min":0,"x_max":0,"o":"m 14 883 l 14 972 l 314 972 l 314 883 l 213 883 l 213 478 l 115 478 l 115 883 m 518 972 l 575 658 l 578 658 l 633 972 l 779 972 l 779 478 l 688 478 l 688 854 l 685 854 l 610 478 l 535 478 l 460 854 l 457 854 l 457 478 l 372 478 l 372 972 "},"−":{"ha":556,"x_min":0,"x_max":0,"o":"m 518 540 l 518 432 l 38 432 l 38 540 "},"∕":{"ha":556,"x_min":0,"x_max":0,"o":"m 532 972 l 140 0 l 24 0 l 415 972 "}}}
